:SAMPLES-PER-SECOND 30
:FRAME-RANGE 1-4244
:FULLY-SPECIFIED
:DEGREES
1857
root  -53.7334 18.9879 66.5174 48.2665 28.3054 2.05321
RightUpLeg  -35.96 -2.96996 -8.99781
RightLeg  103.331 -1.94232 8.28304
RightFoot  -46.4589 7.69291 24.9995
RightToes  -3.31784e-009 0 -3.6325e-017
Spine  43.1649 3.97946 -7.76883
Spine1  -10.276 0.905343 -1.81837
HEad  -43.431 1.67523 -10.9441
LeftShoulder1  1.45267 -6.22745 -7.33911
LeftArm  65.3758 -80.5938 -114.573
LeftForeArm  17.389 3.37779 -18.2118
LeftHand  0.953978 9.7667 25.0675
RightShoulder  14.5372 41.9107 25.0154
RightArm  -27.3395 36.8241 16.7867
RightForeArm  27.3378 21.5703 3.81271
RightHand  -2.01561 2.02131 -31.075
LeftUpLeg  -66.1324 11.8078 1.16682
LeftLeg  126.152 14.9655 -18.6194
LeftFoot  -20.1498 -1.35546 -19.0042
LeftToes  1.0277e-010 -6.71454e-011 3.04227e-011
1858
root  -53.2491 18.6939 66.7556 46.6326 29.0535 -0.320023
RightUpLeg  -33.6385 -2.65896 -7.51078
RightLeg  101.779 -1.80586 8.68157
RightFoot  -46.9511 7.70619 24.6926
RightToes  -3.31784e-009 0 -3.6325e-017
Spine  42.9023 3.30198 -5.042
Spine1  -10.6778 1.36548 -3.95746
HEad  -43.1782 1.10707 -10.4605
LeftShoulder1  1.53634 -6.45571 -7.89764
LeftArm  67.0059 -79.0497 -113.427
LeftForeArm  17.0079 2.21496 -18.5003
LeftHand  0.858703 9.23978 25.6214
RightShoulder  11.7888 43.6682 17.5961
RightArm  -37.2957 40.7078 13.6969
RightForeArm  29.3257 18.2847 4.52873
RightHand  -1.92654 2.08316 -29.5353
LeftUpLeg  -67.8179 14.4847 1.038
LeftLeg  123.051 20.6273 -27.0471
LeftFoot  -13.2968 0.0348587 -2.62812
LeftToes  1.0277e-010 -6.71454e-011 3.04227e-011
1859
root  -52.7323 18.5814 67.1897 45.8004 29.1909 -1.82071
RightUpLeg  -31.5618 -2.42107 -6.56438
RightLeg  99.4908 -1.26347 7.78886
RightFoot  -46.7936 7.70669 24.8043
RightToes  -3.31784e-009 0 -3.6325e-017
Spine  42.6717 3.12295 -3.98943
Spine1  -10.9095 1.91221 -7.00544
HEad  -43.0412 0.530344 -10.7007
LeftShoulder1  1.63794 -6.65422 -8.67981
LeftArm  70.8327 -77.1937 -111.611
LeftForeArm  13.4833 0.165983 -18.9015
LeftHand  0.824438 9.03366 25.9653
RightShoulder  8.51212 44.6825 9.71607
RightArm  -48.0338 43.8688 10.7108
RightForeArm  34.1405 12.6696 4.84799
RightHand  -1.82722 3.45588 -23.9076
LeftUpLeg  -70.2718 15.5125 -1.61871
LeftLeg  126.162 14.5954 -18.2023
LeftFoot  -7.09082 0.459416 -11.2103
LeftToes  1.0277e-010 -6.71454e-011 3.04227e-011
1860
root  -52.1637 18.3211 67.571 45.0456 29.6159 -3.7719
RightUpLeg  -29.679 -2.62633 -5.28364
RightLeg  97.3876 -0.845192 7.02675
RightFoot  -46.8205 7.75759 24.9384
RightToes  -3.31784e-009 0 -3.6325e-017
Spine  41.6427 2.57677 -1.8462
Spine1  -10.9545 2.43974 -9.99672
HEad  -42.6809 0.473512 -10.9953
LeftShoulder1  1.7173 -6.85498 -9.18671
LeftArm  74.3667 -75.0139 -109.762
LeftForeArm  9.9954 -1.97069 -19.0348
LeftHand  0.797594 8.81842 26.6379
RightShoulder  5.74105 45.082 3.34422
RightArm  -52.4413 46.1251 8.23713
RightForeArm  33.0443 6.28153 3.50426
RightHand  -1.57782 3.20068 -21.34
LeftUpLeg  -70.9642 15.6086 -3.14175
LeftLeg  128.014 10.1534 -12.297
LeftFoot  -3.33813 0.544917 -7.49719
LeftToes  1.0277e-010 -6.71454e-011 3.04227e-011
1861
root  -51.5341 18.1055 67.998 45.0434 29.9536 -5.08667
RightUpLeg  -28.2016 -3.18004 -4.59506
RightLeg  94.9906 -0.424228 5.9995
RightFoot  -46.3637 7.80068 25.3954
RightToes  -3.31784e-009 0 -3.6325e-017
Spine  40.2653 2.26435 -0.680201
Spine1  -10.9468 2.8216 -12.4091
HEad  -42.0992 1.18883 -11.1963
LeftShoulder1  1.75955 -7.04497 -9.3006
LeftArm  77.499 -72.5333 -107.75
LeftForeArm  6.77327 -4.14594 -18.8999
LeftHand  0.797306 8.69899 27.5051
RightShoulder  4.12936 45.3626 -0.351102
RightArm  -53.9336 47.9619 6.87854
RightForeArm  29.6823 -0.795044 1.85774
RightHand  -1.42298 2.7916 -20.2333
LeftUpLeg  -70.0755 14.674 -3.45744
LeftLeg  128.012 7.65483 -9.46534
LeftFoot  -3.98599 0.69876 -10.4788
LeftToes  1.0277e-010 -6.71454e-011 3.04227e-011
1862
root  -50.8326 17.9554 68.4973 45.7767 30.451 -5.26443
RightUpLeg  -26.43 -4.36683 -4.79283
RightLeg  91.9123 -0.0898212 5.74175
RightFoot  -46.2133 8.07504 26.3413
RightToes  -3.31784e-009 0 -3.6325e-017
Spine  38.723 2.33791 -1.00952
Spine1  -10.6625 2.9694 -13.191
HEad  -41.7244 1.83711 -12.2341
LeftShoulder1  1.84504 -7.29715 -9.7491
LeftArm  81.659 -69.8004 -105.739
LeftForeArm  2.51279 -6.69605 -18.453
LeftHand  0.903271 8.94103 28.892
RightShoulder  3.38208 45.884 -2.12064
RightArm  -51.1119 47.8914 7.64696
RightForeArm  24.3879 -6.17931 1.97963
RightHand  -1.26256 3.11131 -17.3628
LeftUpLeg  -68.0632 12.5754 -3.67308
LeftLeg  126.681 5.99501 -7.89768
LeftFoot  -5.87331 0.750417 -14.9103
LeftToes  1.0277e-010 -6.71454e-011 3.04227e-011
